<svg width="485" height="160" viewBox="0 0 485 160" fill="none" xmlns="http://www.w3.org/2000/svg">
<path d="M189.131 68.5841V11.5799H213.721C221.439 11.5799 227.586 13.9218 232.163 18.6056C237.113 23.5556 239.588 30.6079 239.588 39.7626C239.588 48.3851 237.459 55.2512 233.201 60.3608C228.624 65.843 222.13 68.5841 213.721 68.5841H189.131ZM201.665 22.1185V58.0455H212.843C216.888 58.0455 220.161 56.7681 222.663 54.2133C225.59 51.2327 227.054 46.815 227.054 40.9602C227.054 34.8393 225.883 30.2619 223.541 27.2281C220.88 23.8217 216.568 22.1185 210.607 22.1185H201.665Z" fill="white"/>
<path d="M248.307 68.5841V11.5799H290.941V22.1185H260.842V34.3337H288.466V44.0739H260.842V58.0455H291.58V68.5841H248.307Z" fill="white"/>
<path d="M296.485 49.6625H308.62C308.62 53.2286 309.897 55.9431 312.452 57.806C314.634 59.4027 317.562 60.2011 321.234 60.2011C324.108 60.2011 326.504 59.7487 328.42 58.8439C331.028 57.6197 332.332 55.7036 332.332 53.0955C332.332 49.8488 329.404 47.4004 323.55 45.7505C313.437 42.8763 307.981 41.2263 307.183 40.8005C301.328 37.9796 298.401 33.5353 298.401 27.4676C298.401 21.9854 300.663 17.6476 305.187 14.4541C309.232 11.6331 314.076 10.2227 319.717 10.2227C326.264 10.2227 331.56 11.6331 335.605 14.4541C340.236 17.7008 342.551 22.4112 342.551 28.5853H330.416C330.096 22.837 326.344 19.9629 319.159 19.9629C316.87 19.9629 314.927 20.4419 313.33 21.3999C311.467 22.5709 310.536 24.2475 310.536 26.4297C310.536 28.5055 311.574 30.0224 313.65 30.9805C315.246 31.7256 319.877 33.0829 327.542 35.0522C332.012 36.1699 335.339 37.4473 337.521 38.8844C342.152 41.865 344.467 46.123 344.467 51.6585C344.467 57.0874 342.445 61.4519 338.399 64.7519C334.141 68.2115 328.26 69.9413 320.755 69.9413C313.889 69.9413 308.247 68.318 303.83 65.0712C298.88 61.3987 296.431 56.2624 296.485 49.6625Z" fill="white"/>
<path d="M351.925 68.5841V11.5799H364.46V68.5841H351.925Z" fill="white"/>
<path d="M417.945 68.5841L416.667 62.1172C412.622 67.3333 407.406 69.9413 401.019 69.9413C392.45 69.9413 385.584 67.0672 380.421 61.3188C375.471 55.8366 372.996 48.8375 372.996 40.3215C372.996 31.5926 375.471 24.4604 380.421 18.925C385.531 13.1234 392.397 10.2227 401.019 10.2227C407.14 10.2227 412.436 11.9525 416.907 15.4121C421.697 19.1379 424.412 24.1144 425.05 30.3418H413.075C412.383 27.2547 410.946 24.8862 408.763 23.2362C406.634 21.5862 404.053 20.7612 401.019 20.7612C395.75 20.7612 391.758 22.7838 389.043 26.8289C386.702 30.2886 385.531 34.7861 385.531 40.3215C385.531 45.644 386.702 50.0085 389.043 53.4149C391.811 57.4068 395.803 59.4027 401.019 59.4027C409.322 59.4027 413.846 55.3044 414.592 47.1077H401.977V37.7667H425.928V68.5841H417.945Z" fill="white"/>
<path d="M436.051 68.5841V11.5799H448.506L472.297 49.8222H472.457V11.5799H484.193V68.5841H471.659L447.947 30.4216H447.787V68.5841H436.051Z" fill="white"/>
<path fill-rule="evenodd" clip-rule="evenodd" d="M319.717 10.4435C314.113 10.4435 309.316 11.8437 305.313 14.6351C300.848 17.7875 298.622 22.0579 298.622 27.4667C298.622 30.4635 299.344 33.0477 300.781 35.2287C302.218 37.4107 304.379 39.2029 307.278 40.5998L307.282 40.6018L307.286 40.604C307.466 40.6997 307.937 40.8767 308.724 41.138C309.503 41.3966 310.574 41.7319 311.937 42.1442C314.663 42.9686 318.553 44.0992 323.609 45.5361C326.551 46.3651 328.78 47.4006 330.278 48.6532C331.782 49.9113 332.553 51.3938 332.553 53.0947C332.553 54.4374 332.216 55.6132 331.536 56.6125C330.857 57.6105 329.845 58.4187 328.513 59.0436C326.559 59.9664 324.129 60.422 321.233 60.422C317.53 60.422 314.552 59.617 312.32 57.9841C309.754 56.1128 308.451 53.4017 308.399 49.8834H296.705C296.708 56.3118 299.127 61.3055 303.96 64.8916C308.331 68.104 313.924 69.7187 320.754 69.7187C328.227 69.7187 334.053 67.9963 338.259 64.5789C342.25 61.323 344.244 57.0228 344.244 51.6576C344.244 46.1971 341.967 42.0095 337.4 39.07L337.398 39.0688C335.247 37.6521 331.949 36.382 327.487 35.2665L327.485 35.2661C323.652 34.2812 320.576 33.4488 318.257 32.7692C315.943 32.0911 314.371 31.5613 313.555 31.1806L313.649 30.9797L313.556 31.181C313.556 31.1808 313.555 31.1807 313.555 31.1806C312.49 30.6889 311.677 30.0471 311.131 29.2486C310.583 28.4486 310.313 27.5054 310.313 26.4288C310.313 24.1696 311.285 22.4224 313.211 21.2113L313.215 21.2089C314.854 20.2259 316.838 19.7402 319.158 19.7402C322.775 19.7402 325.565 20.4629 327.496 21.9415C329.388 23.3908 330.423 25.5424 330.623 28.3627H330.415V28.5845L330.636 28.5722C330.632 28.5019 330.628 28.4321 330.623 28.3627H342.327C342.328 28.4364 342.328 28.5103 342.328 28.5845H342.55V28.3627H342.327C342.273 22.3627 339.987 17.7972 335.477 14.6351L335.604 14.4532L335.477 14.6348C335.477 14.6349 335.477 14.635 335.477 14.6351C331.48 11.8474 326.233 10.4435 319.717 10.4435ZM189.352 11.8008V68.3614H213.72C222.077 68.3614 228.503 65.6403 233.03 60.2178C237.246 55.1586 239.366 48.3479 239.366 39.7617C239.366 30.647 236.902 23.6583 232.006 18.7616L232.004 18.7597C227.476 14.1262 221.389 11.8008 213.72 11.8008H189.352ZM352.146 11.8008V68.3614H364.237V11.8008H352.146ZM201.886 22.3394V57.8228H212.842C216.836 57.8228 220.049 56.5637 222.503 54.0572C225.376 51.1323 226.831 46.7796 226.831 40.9593C226.831 34.8603 225.663 30.3408 223.365 27.3629C220.76 24.0293 216.526 22.3394 210.606 22.3394H201.886Z" fill="white"/>
<path d="M239.88 91.416L220.958 148.42H206.827L188.305 91.416H201.238L213.933 131.495H214.092L226.946 91.416H239.88Z" fill="white"/>
<path fill-rule="evenodd" clip-rule="evenodd" d="M188 91.1953H201.401L214.014 131.016L226.785 91.1953H240.188L221.119 148.643H206.666L188 91.1953ZM188.61 91.6389L206.989 148.199H220.799L239.573 91.6389H227.109L214.255 131.717H213.771L201.077 91.6389H188.61Z" fill="white"/>
<path d="M257.036 91.416L235.4 148.42H248.095L252.566 135.726L255.839 126.385L263.264 105.467H263.423L270.609 126.385L273.882 135.726L278.193 148.42H291.207L269.89 91.416H257.036Z" fill="white"/>
<path fill-rule="evenodd" clip-rule="evenodd" d="M256.884 91.1953H270.045L291.528 148.643H278.036L273.674 135.8L273.673 135.798L270.401 126.459L270.4 126.458L263.343 105.913L256.049 126.459L256.049 126.46L252.776 135.8L248.253 148.643H235.08L256.884 91.1953ZM257.191 91.6389L235.723 148.199H247.939L252.357 135.654L255.631 126.313L255.631 126.312L263.108 105.247H263.583L270.819 126.313L270.82 126.314L274.093 135.654L274.093 135.656L278.353 148.199H290.888L269.738 91.6389H257.191Z" fill="white"/>
<path d="M296.467 148.42V91.416H309.001V137.882H336.785V148.42H296.467Z" fill="white"/>
<path d="M392.174 91.416V126.864C392.174 134.422 390.045 140.144 385.787 144.029C381.582 147.861 375.595 149.777 367.824 149.777C351.643 149.777 343.553 142.14 343.553 126.864V91.416H356.088V126.864C356.088 130.643 356.779 133.491 358.163 135.407C360.026 137.961 363.246 139.239 367.824 139.239C372.188 139.239 375.275 138.228 377.085 136.205C378.788 134.342 379.64 131.228 379.64 126.864V91.416H392.174Z" fill="white"/>
<path d="M402.969 148.42V91.416H445.603V101.955H415.504V114.17H443.128V123.91H415.504V137.882H446.241V148.42H402.969Z" fill="white"/>
<path fill-rule="evenodd" clip-rule="evenodd" d="M296.246 91.1953H309.224V137.661H337.008V148.643H296.246V91.1953ZM296.69 91.6389V148.2H336.564V138.104H308.781V91.6389H296.69ZM343.332 91.1953H356.31V126.865C356.31 130.623 357 133.416 358.344 135.278C360.149 137.752 363.285 139.018 367.825 139.018C372.164 139.018 375.173 138.012 376.921 136.058L376.922 136.056C378.569 134.255 379.419 131.211 379.419 126.865V91.1953H392.397V126.865C392.397 134.465 390.255 140.255 385.938 144.194C381.679 148.075 375.63 150 367.825 150C359.703 150 353.571 148.084 349.47 144.211C345.365 140.337 343.332 134.54 343.332 126.865V91.1953ZM343.776 91.6389V126.865C343.776 134.465 345.788 140.126 349.774 143.889C353.763 147.654 359.766 149.557 367.825 149.557C375.561 149.557 381.488 147.649 385.639 143.866C389.838 140.035 391.954 134.381 391.954 126.865V91.6389H379.863V126.865C379.863 131.247 379.01 134.43 377.251 136.355C375.379 138.446 372.214 139.462 367.825 139.462C363.21 139.462 359.906 138.173 357.985 135.538L357.985 135.538C356.561 133.567 355.867 130.665 355.867 126.865V91.6389H343.776ZM402.748 91.1953H445.825V102.177H415.727V113.949H443.35V124.133H415.727V137.661H446.464V148.643H402.748V91.1953ZM403.192 91.6389V148.2H446.021V138.104H415.283V123.689H442.907V114.393H415.283V101.734H445.382V91.6389H403.192Z" fill="white"/>
<circle cx="80" cy="80" r="80" fill="white"/>
<path d="M80 0C124.183 0 160 35.8172 160 80C160 124.183 124.183 160 80 160C35.8172 160 0 124.183 0 80C0 49.6103 16.9444 23.1772 41.9014 9.63574L90.6416 92.6514L66.1211 92.4277V109.396H90.6416L77.2842 131.052L90.9023 139.312L104.521 116.763L116.502 138.382L129.897 130.121L118.4 109.396H142.921V92.4277L118.4 92.6514L129.897 71.9258L116.502 64.3721L104.521 85.2842L57.3223 3.26074C64.512 1.13939 72.1229 0 80 0Z" fill="#FE0002"/>
</svg>
