<svg width="797" height="799" viewBox="0 0 797 799" fill="none" xmlns="http://www.w3.org/2000/svg">
<line x1="48.5" y1="2.18557e-08" x2="48.5" y2="799" stroke="#E2E8F0"/>
<line x1="748.5" y1="2.18557e-08" x2="748.5" y2="799" stroke="#E2E8F0"/>
<line y1="48.5" x2="797" y2="48.5" stroke="#E2E8F0"/>
<line y1="750.342" x2="797.001" y2="750.342" stroke="#E2E8F0"/>
<circle cx="399" cy="400" r="240" fill="white"/>
<path d="M399 160C531.548 160 639 267.452 639 400C639 532.548 531.548 640 399 640C266.452 640 159 532.548 159 400C159 308.831 209.834 229.535 284.705 188.91L430.926 437.955L357.363 437.285V488.188H430.926L390.852 553.155L431.707 577.937L472.562 510.29L508.507 575.146L548.693 550.364L514.2 488.188H587.763V437.285L514.2 437.955L548.693 375.778L508.507 353.118L472.562 415.853L330.966 169.78C352.535 163.416 375.369 160 399 160Z" fill="#FE0002"/>
</svg>
