<svg width="869" height="480" viewBox="0 0 869 480" fill="none" xmlns="http://www.w3.org/2000/svg">
<path d="M350.162 220.45V120.337H393.348C406.902 120.337 417.699 124.45 425.738 132.676C434.431 141.369 438.778 153.755 438.778 169.833C438.778 184.976 435.039 197.034 427.561 206.008C419.522 215.636 408.118 220.45 393.348 220.45H350.162ZM372.176 138.845V201.942H391.806C398.91 201.942 404.659 199.699 409.052 195.212C414.194 189.977 416.764 182.218 416.764 171.936C416.764 161.186 414.708 153.147 410.595 147.819C405.921 141.836 398.349 138.845 387.88 138.845H372.176Z" fill="black"/>
<path d="M454.091 220.45V120.337H528.966V138.845H476.105V160.298H524.619V177.404H476.105V201.942H530.088V220.45H454.091Z" fill="black"/>
<path d="M538.702 187.219H560.015C560.015 193.482 562.258 198.25 566.745 201.521C570.578 204.326 575.719 205.728 582.169 205.728C587.217 205.728 591.423 204.933 594.788 203.344C599.369 201.194 601.659 197.829 601.659 193.249C601.659 187.547 596.517 183.247 586.235 180.349C568.474 175.301 558.893 172.403 557.491 171.656C547.209 166.701 542.067 158.896 542.067 148.24C542.067 138.611 546.04 130.993 553.986 125.385C561.09 120.43 569.596 117.953 579.505 117.953C591.002 117.953 600.303 120.43 607.408 125.385C615.54 131.087 619.606 139.359 619.606 150.203H598.294C597.733 140.107 591.143 135.059 578.523 135.059C574.504 135.059 571.092 135.901 568.287 137.583C565.016 139.64 563.38 142.584 563.38 146.417C563.38 150.062 565.203 152.726 568.848 154.409C571.653 155.718 579.785 158.101 593.246 161.56C601.098 163.523 606.94 165.766 610.773 168.29C618.905 173.525 622.971 181.003 622.971 190.725C622.971 200.259 619.419 207.924 612.315 213.72C604.837 219.796 594.508 222.834 581.328 222.834C569.269 222.834 559.36 219.983 551.602 214.281C542.909 207.831 538.609 198.811 538.702 187.219Z" fill="black"/>
<path d="M636.069 220.45V120.337H658.083V220.45H636.069Z" fill="black"/>
<path d="M752.016 220.45L749.773 209.093C742.669 218.254 733.508 222.834 722.291 222.834C707.241 222.834 695.183 217.786 686.115 207.691C677.422 198.063 673.075 185.771 673.075 170.814C673.075 155.484 677.422 142.958 686.115 133.237C695.089 123.048 707.148 117.953 722.291 117.953C733.041 117.953 742.342 120.991 750.194 127.067C758.607 133.61 763.374 142.351 764.496 153.287H743.463C742.248 147.866 739.724 143.706 735.892 140.808C732.153 137.91 727.619 136.462 722.291 136.462C713.037 136.462 706.026 140.014 701.259 147.118C697.146 153.194 695.089 161.093 695.089 170.814C695.089 180.162 697.146 187.827 701.259 193.81C706.119 200.82 713.13 204.326 722.291 204.326C736.873 204.326 744.819 197.128 746.127 182.733H723.973V166.327H766.038V220.45H752.016Z" fill="black"/>
<path d="M783.816 220.45V120.337H805.689L847.473 187.5H847.754V120.337H868.365V220.45H846.352L804.708 153.428H804.427V220.45H783.816Z" fill="black"/>
<path fill-rule="evenodd" clip-rule="evenodd" d="M579.504 118.341C569.663 118.341 561.237 120.801 554.207 125.703C546.365 131.239 542.456 138.739 542.456 148.238C542.456 153.501 543.724 158.04 546.247 161.87C548.771 165.702 552.567 168.85 557.659 171.303L557.666 171.307L557.673 171.311C557.988 171.479 558.815 171.79 560.198 172.249C561.566 172.703 563.446 173.292 565.84 174.016C570.628 175.464 577.46 177.449 586.34 179.973C591.506 181.429 595.421 183.247 598.052 185.447C600.693 187.657 602.047 190.26 602.047 193.247C602.047 195.606 601.456 197.671 600.262 199.426C599.069 201.178 597.291 202.598 594.953 203.695C591.521 205.316 587.253 206.116 582.168 206.116C575.664 206.116 570.434 204.702 566.514 201.835C562.007 198.548 559.719 193.787 559.627 187.608H539.089C539.094 198.898 543.344 207.668 551.831 213.966C559.508 219.608 569.33 222.443 581.326 222.443C594.45 222.443 604.681 219.419 612.068 213.417C619.077 207.698 622.581 200.146 622.581 190.724C622.581 181.134 618.581 173.779 610.561 168.617L610.557 168.614C606.779 166.127 600.987 163.896 593.15 161.937L593.148 161.936C586.416 160.206 581.012 158.744 576.94 157.551C572.877 156.36 570.115 155.429 568.683 154.761L568.847 154.408L568.684 154.762C568.684 154.761 568.683 154.761 568.683 154.761C566.812 153.897 565.384 152.77 564.425 151.368C563.463 149.963 562.989 148.306 562.989 146.416C562.989 142.448 564.695 139.379 568.079 137.252L568.086 137.248C570.963 135.522 574.448 134.669 578.522 134.669C584.875 134.669 589.776 135.938 593.166 138.535C596.489 141.08 598.307 144.859 598.658 149.812H598.292V150.201L598.681 150.18C598.674 150.057 598.667 149.934 598.658 149.812H619.214C619.215 149.941 619.216 150.071 619.216 150.201H619.605V149.812H619.214C619.118 139.274 615.104 131.256 607.184 125.703L607.406 125.383L607.183 125.702C607.183 125.702 607.183 125.703 607.184 125.703C600.163 120.807 590.947 118.341 579.504 118.341ZM350.55 120.725V220.06H393.347C408.024 220.06 419.309 215.281 427.261 205.757C434.665 196.872 438.387 184.911 438.387 169.832C438.387 153.824 434.061 141.55 425.462 132.95L425.458 132.947C417.506 124.809 406.817 120.725 393.347 120.725H350.55ZM636.458 120.725V220.06H657.693V120.725H636.458ZM372.564 139.234V201.551H391.805C398.819 201.551 404.463 199.34 408.773 194.938C413.818 189.801 416.374 182.157 416.374 171.935C416.374 161.223 414.323 153.286 410.286 148.056C405.711 142.202 398.276 139.234 387.879 139.234H372.564Z" fill="black"/>
<path d="M439.292 260.549L406.061 360.662H381.243L348.713 260.549H371.428L393.722 330.937H394.002L416.577 260.549H439.292Z" fill="black"/>
<path fill-rule="evenodd" clip-rule="evenodd" d="M348.176 260.162H371.712L393.863 330.097L416.292 260.162H439.83L406.341 361.055H380.959L348.176 260.162ZM349.248 260.941L381.525 360.276H405.779L438.751 260.941H416.86L394.285 331.329H393.436L371.142 260.941H349.248Z" fill="black"/>
<path d="M469.422 260.549L431.424 360.662H453.718L461.57 338.368L467.319 321.963L480.359 285.227H480.639L493.259 321.963L499.008 338.368L506.579 360.662H529.434L491.997 260.549H469.422Z" fill="black"/>
<path fill-rule="evenodd" clip-rule="evenodd" d="M469.155 260.162H492.269L529.998 361.055H506.302L498.642 338.5L498.641 338.496L492.893 322.095L492.892 322.092L480.497 286.009L467.688 322.095L467.688 322.096L461.94 338.5L453.996 361.055H430.861L469.155 260.162ZM469.693 260.941L431.99 360.276H453.444L461.204 338.242L466.953 321.837L466.954 321.836L480.086 284.84H480.919L493.628 321.837L493.629 321.839L499.377 338.242L499.378 338.246L506.86 360.276H528.875L491.729 260.941H469.693Z" fill="black"/>
<path d="M538.672 360.662V260.549H560.686V342.154H609.481V360.662H538.672Z" fill="black"/>
<path d="M706.758 260.549V322.804C706.758 336.078 703.019 346.127 695.541 352.951C688.156 359.681 677.64 363.046 663.992 363.046C635.575 363.046 621.367 349.632 621.367 322.804V260.549H643.381V322.804C643.381 329.441 644.596 334.442 647.026 337.807C650.298 342.294 655.953 344.538 663.992 344.538C671.658 344.538 677.079 342.762 680.257 339.21C683.249 335.938 684.744 330.469 684.744 322.804V260.549H706.758Z" fill="black"/>
<path d="M725.717 360.662V260.549H800.591V279.057H747.73V300.51H796.245V317.616H747.73V342.154H801.713V360.662H725.717Z" fill="black"/>
<path fill-rule="evenodd" clip-rule="evenodd" d="M538.283 260.162H561.076V341.767H609.871V361.055H538.283V260.162ZM539.062 260.941V360.276H609.092V342.546H560.297V260.941H539.062ZM620.978 260.162H643.771V322.807C643.771 329.407 644.982 334.312 647.343 337.582C650.513 341.928 656.021 344.151 663.993 344.151C671.613 344.151 676.898 342.383 679.968 338.953L679.971 338.949C682.863 335.786 684.356 330.44 684.356 322.807V260.162H707.148V322.807C707.148 336.154 703.386 346.322 695.804 353.241C688.325 360.057 677.702 363.438 663.993 363.438C649.73 363.438 638.96 360.072 631.757 353.272C624.549 346.467 620.978 336.287 620.978 322.807V260.162ZM621.757 260.941V322.807C621.757 336.155 625.291 346.096 632.292 352.705C639.296 359.318 649.839 362.659 663.993 362.659C677.58 362.659 687.989 359.31 695.279 352.666C702.653 345.937 706.369 336.007 706.369 322.807V260.941H685.135V322.807C685.135 330.503 683.637 336.093 680.548 339.473C677.261 343.146 671.703 344.93 663.993 344.93C655.889 344.93 650.086 342.667 646.713 338.04L646.711 338.038C644.212 334.578 642.992 329.481 642.992 322.807V260.941H621.757ZM725.328 260.162H800.982V279.449H748.121V300.123H796.635V318.009H748.121V341.767H802.104V361.055H725.328V260.162ZM726.107 260.941V360.276H801.325V342.546H747.342V317.23H795.856V300.902H747.342V278.671H800.203V260.941H726.107Z" fill="black"/>
<circle cx="158.502" cy="240.5" r="140.5" fill="white"/>
<path d="M158.5 100C236.096 100 299 162.904 299 240.5C299 318.096 236.096 381 158.5 381C80.904 381 18 318.096 18 240.5C18 187.128 47.7599 140.707 91.5908 116.925L177.189 262.718L134.125 262.326V292.125H177.189L153.729 330.158L177.647 344.665L201.564 305.064L222.607 343.032L246.133 328.524L225.939 292.125H269.005V262.326L225.939 262.718L246.133 226.318L222.607 213.053L201.564 249.779L118.673 105.726C131.3 102 144.666 100 158.5 100Z" fill="#FE0002"/>
<line x1="0.5" y1="2.18557e-08" x2="0.499979" y2="480" stroke="#E2E8F0"/>
<path opacity="0.4" d="M18.192 14.72L16.048 5.92H16.176V16H14.8V4.64H16.88L19.12 13.984H18.48L20.72 4.64H22.8V16H21.424V5.92H21.552L19.408 14.72H18.192ZM29.9938 16.256C29.0978 16.256 28.3351 16.0267 27.7058 15.568C27.0871 15.1093 26.6124 14.4373 26.2818 13.552C25.9618 12.6667 25.8018 11.5947 25.8018 10.336C25.8018 9.056 25.9618 7.97333 26.2818 7.088C26.6124 6.20267 27.0871 5.53067 27.7058 5.072C28.3351 4.61333 29.0978 4.384 29.9938 4.384C30.8898 4.384 31.6471 4.61333 32.2658 5.072C32.8951 5.53067 33.3698 6.20267 33.6898 7.088C34.0204 7.97333 34.1858 9.056 34.1858 10.336C34.1858 11.5947 34.0204 12.6667 33.6898 13.552C33.3698 14.4373 32.8951 15.1093 32.2658 15.568C31.6471 16.0267 30.8898 16.256 29.9938 16.256ZM29.9938 14.912C30.5804 14.912 31.0764 14.7413 31.4818 14.4C31.8978 14.048 32.2124 13.5307 32.4258 12.848C32.6391 12.1653 32.7458 11.328 32.7458 10.336C32.7458 9.344 32.6391 8.50667 32.4258 7.824C32.2124 7.13067 31.8978 6.608 31.4818 6.256C31.0764 5.904 30.5804 5.728 29.9938 5.728C29.4071 5.728 28.9058 5.904 28.4898 6.256C28.0844 6.608 27.7751 7.13067 27.5618 7.824C27.3484 8.50667 27.2418 9.344 27.2418 10.336C27.2418 11.328 27.3484 12.1653 27.5618 12.848C27.7751 13.5307 28.0844 14.048 28.4898 14.4C28.9058 14.7413 29.4071 14.912 29.9938 14.912ZM37.5075 16V4.64H39.4595L43.4915 14.432V4.64H44.8675V16H42.9155L38.8835 6.208V16H37.5075ZM52.3812 16.256C51.4852 16.256 50.7226 16.0267 50.0932 15.568C49.4746 15.1093 48.9999 14.4373 48.6692 13.552C48.3492 12.6667 48.1892 11.5947 48.1892 10.336C48.1892 9.056 48.3492 7.97333 48.6692 7.088C48.9999 6.20267 49.4746 5.53067 50.0932 5.072C50.7226 4.61333 51.4852 4.384 52.3812 4.384C53.2772 4.384 54.0346 4.61333 54.6532 5.072C55.2826 5.53067 55.7572 6.20267 56.0772 7.088C56.4079 7.97333 56.5732 9.056 56.5732 10.336C56.5732 11.5947 56.4079 12.6667 56.0772 13.552C55.7572 14.4373 55.2826 15.1093 54.6532 15.568C54.0346 16.0267 53.2772 16.256 52.3812 16.256ZM52.3812 14.912C52.9679 14.912 53.4639 14.7413 53.8692 14.4C54.2852 14.048 54.5999 13.5307 54.8132 12.848C55.0266 12.1653 55.1332 11.328 55.1332 10.336C55.1332 9.344 55.0266 8.50667 54.8132 7.824C54.5999 7.13067 54.2852 6.608 53.8692 6.256C53.4639 5.904 52.9679 5.728 52.3812 5.728C51.7946 5.728 51.2932 5.904 50.8772 6.256C50.4719 6.608 50.1626 7.13067 49.9492 7.824C49.7359 8.50667 49.6292 9.344 49.6292 10.336C49.6292 11.328 49.7359 12.1653 49.9492 12.848C50.1626 13.5307 50.4719 14.048 50.8772 14.4C51.2932 14.7413 51.7946 14.912 52.3812 14.912ZM63.543 16.256C62.743 16.256 62.0283 16.0373 61.399 15.6C60.7803 15.152 60.2897 14.4907 59.927 13.616C59.5643 12.7307 59.383 11.6373 59.383 10.336C59.383 9.10933 59.5483 8.05333 59.879 7.168C60.2203 6.28267 60.7057 5.6 61.335 5.12C61.9643 4.62933 62.7217 4.384 63.607 4.384C64.3003 4.384 64.9137 4.53867 65.447 4.848C65.991 5.15733 66.4443 5.58933 66.807 6.144C67.1697 6.688 67.431 7.31733 67.591 8.032L66.151 8.128C65.9697 7.424 65.6657 6.848 65.239 6.4C64.823 5.952 64.279 5.728 63.607 5.728C63.0203 5.728 62.519 5.90933 62.103 6.272C61.687 6.624 61.367 7.14667 61.143 7.84C60.9297 8.52267 60.823 9.35467 60.823 10.336C60.823 11.3067 60.935 12.1333 61.159 12.816C61.383 13.4987 61.703 14.0213 62.119 14.384C62.5457 14.736 63.063 14.912 63.671 14.912C64.215 14.912 64.679 14.7733 65.063 14.496C65.4577 14.208 65.767 13.8133 65.991 13.312C66.215 12.8 66.3377 12.2187 66.359 11.568H63.639V10.256H67.639V16H66.359L66.295 13.312L66.679 13.44C66.5297 13.984 66.3217 14.4693 66.055 14.896C65.799 15.3227 65.463 15.6587 65.047 15.904C64.6417 16.1387 64.1403 16.256 63.543 16.256ZM71.0888 16V4.64H74.5448C75.7394 4.64 76.6834 4.944 77.3768 5.552C78.0701 6.14933 78.4167 6.976 78.4167 8.032C78.4167 8.56533 78.2941 9.04 78.0487 9.456C77.8034 9.86133 77.4888 10.1813 77.1048 10.416C76.7208 10.6507 76.3261 10.784 75.9208 10.816L75.8568 10.624C76.6141 10.6667 77.1794 10.848 77.5528 11.168C77.9368 11.488 78.1608 12.0107 78.2248 12.736L78.5128 16H77.1368L76.8648 12.912C76.8328 12.56 76.7474 12.2773 76.6088 12.064C76.4808 11.84 76.2728 11.68 75.9848 11.584C75.7074 11.4773 75.3234 11.424 74.8328 11.424H72.4648V16H71.0888ZM72.4648 10.08H74.5448C75.3341 10.08 75.9368 9.904 76.3528 9.552C76.7688 9.18933 76.9768 8.68267 76.9768 8.032C76.9768 7.37067 76.7688 6.864 76.3528 6.512C75.9368 6.16 75.3341 5.984 74.5448 5.984H72.4648V10.08ZM81.5785 16L85.0345 4.64H86.8905L90.3465 16H88.8745L85.9625 5.888L83.0505 16H81.5785ZM83.3225 12.768L83.8025 11.424H88.1225L88.6025 12.768H83.3225ZM96.5482 14.72L94.4042 5.92H94.5322V16H93.1562V4.64H95.2362L97.4762 13.984H96.8362L99.0762 4.64H101.156V16H99.7802V5.92H99.9082L97.7642 14.72H96.5482Z" fill="black"/>
<line x1="329.5" y1="2.18557e-08" x2="329.5" y2="480" stroke="#E2E8F0"/>
<path opacity="0.4" d="M344.728 16L343.48 4.64H344.92L345.976 15.2H345.816L347.064 5.92H348.536L349.784 15.2H349.624L350.68 4.64H352.12L350.872 16H348.792L347.608 7.04H347.992L346.808 16H344.728ZM358.994 16.256C358.098 16.256 357.335 16.0267 356.706 15.568C356.087 15.1093 355.612 14.4373 355.282 13.552C354.962 12.6667 354.802 11.5947 354.802 10.336C354.802 9.056 354.962 7.97333 355.282 7.088C355.612 6.20267 356.087 5.53067 356.706 5.072C357.335 4.61333 358.098 4.384 358.994 4.384C359.89 4.384 360.647 4.61333 361.266 5.072C361.895 5.53067 362.37 6.20267 362.69 7.088C363.02 7.97333 363.186 9.056 363.186 10.336C363.186 11.5947 363.02 12.6667 362.69 13.552C362.37 14.4373 361.895 15.1093 361.266 15.568C360.647 16.0267 359.89 16.256 358.994 16.256ZM358.994 14.912C359.58 14.912 360.076 14.7413 360.482 14.4C360.898 14.048 361.212 13.5307 361.426 12.848C361.639 12.1653 361.746 11.328 361.746 10.336C361.746 9.344 361.639 8.50667 361.426 7.824C361.212 7.13067 360.898 6.608 360.482 6.256C360.076 5.904 359.58 5.728 358.994 5.728C358.407 5.728 357.906 5.904 357.49 6.256C357.084 6.608 356.775 7.13067 356.562 7.824C356.348 8.50667 356.242 9.344 356.242 10.336C356.242 11.328 356.348 12.1653 356.562 12.848C356.775 13.5307 357.084 14.048 357.49 14.4C357.906 14.7413 358.407 14.912 358.994 14.912ZM366.508 16V4.64H369.964C371.158 4.64 372.102 4.944 372.796 5.552C373.489 6.14933 373.836 6.976 373.836 8.032C373.836 8.56533 373.713 9.04 373.468 9.456C373.222 9.86133 372.908 10.1813 372.524 10.416C372.14 10.6507 371.745 10.784 371.34 10.816L371.276 10.624C372.033 10.6667 372.598 10.848 372.972 11.168C373.356 11.488 373.58 12.0107 373.644 12.736L373.932 16H372.556L372.284 12.912C372.252 12.56 372.166 12.2773 372.028 12.064C371.9 11.84 371.692 11.68 371.404 11.584C371.126 11.4773 370.742 11.424 370.252 11.424H367.884V16H366.508ZM367.884 10.08H369.964C370.753 10.08 371.356 9.904 371.772 9.552C372.188 9.18933 372.396 8.68267 372.396 8.032C372.396 7.37067 372.188 6.864 371.772 6.512C371.356 6.16 370.753 5.984 369.964 5.984H367.884V10.08ZM378.021 16V4.64H380.709C381.691 4.64 382.544 4.864 383.269 5.312C384.005 5.74933 384.571 6.39467 384.965 7.248C385.371 8.09067 385.573 9.12 385.573 10.336C385.573 11.552 385.371 12.5813 384.965 13.424C384.571 14.2667 384.005 14.9067 383.269 15.344C382.544 15.7813 381.691 16 380.709 16H378.021ZM379.397 14.656H380.629C381.739 14.656 382.597 14.2987 383.205 13.584C383.824 12.8587 384.133 11.776 384.133 10.336C384.133 8.896 383.824 7.81333 383.205 7.088C382.597 6.352 381.739 5.984 380.629 5.984H379.397V14.656ZM391.967 14.72L389.823 5.92H389.951V16H388.575V4.64H390.655L392.895 13.984H392.255L394.495 4.64H396.575V16H395.199V5.92H395.327L393.183 14.72H391.967ZM399.385 16L402.841 4.64H404.697L408.153 16H406.681L403.769 5.888L400.857 16H399.385ZM401.129 12.768L401.609 11.424H405.929L406.409 12.768H401.129ZM411.282 16V4.64H414.738C415.933 4.64 416.877 4.944 417.57 5.552C418.264 6.14933 418.61 6.976 418.61 8.032C418.61 8.56533 418.488 9.04 418.242 9.456C417.997 9.86133 417.682 10.1813 417.298 10.416C416.914 10.6507 416.52 10.784 416.114 10.816L416.05 10.624C416.808 10.6667 417.373 10.848 417.746 11.168C418.13 11.488 418.354 12.0107 418.418 12.736L418.706 16H417.33L417.058 12.912C417.026 12.56 416.941 12.2773 416.802 12.064C416.674 11.84 416.466 11.68 416.178 11.584C415.901 11.4773 415.517 11.424 415.026 11.424H412.658V16H411.282ZM412.658 10.08H414.738C415.528 10.08 416.13 9.904 416.546 9.552C416.962 9.18933 417.17 8.68267 417.17 8.032C417.17 7.37067 416.962 6.864 416.546 6.512C416.13 6.16 415.528 5.984 414.738 5.984H412.658V10.08ZM423.532 12.384V10.528L428.46 4.64H430.156L423.532 12.384ZM422.316 16V4.64H423.692V16H422.316ZM428.62 16L424.652 10.24L425.612 9.248L430.316 16H428.62Z" fill="black"/>
</svg>
